<?xml version="1.0" encoding="UTF-8"?>
<!DOCTYPE svg PUBLIC "-//W3C//DTD SVG 1.1//EN" "http://www.w3.org/Graphics/SVG/1.1/DTD/svg11.dtd">
<!-- Creator: CorelDRAW -->
<svg xmlns="http://www.w3.org/2000/svg" xml:space="preserve" width="3.5115in" height="1.10275in" version="1.1" style="shape-rendering:geometricPrecision; text-rendering:geometricPrecision; image-rendering:optimizeQuality; fill-rule:evenodd; clip-rule:evenodd"
viewBox="0 0 1609.97 505.6"
 xmlns:xlink="http://www.w3.org/1999/xlink"
 xmlns:xodm="http://www.corel.com/coreldraw/odm/2003">
 <defs>
  <style type="text/css">
   <![CDATA[
    .fil0 {fill:black;fill-rule:nonzero}
   ]]>
  </style>
 </defs>
 <g id="Layer_x0020_1">
  <metadata id="CorelCorpID_0Corel-Layer"/>
  <path id="text" class="fil0" d="M101.83 410.69l-10.91 -7.11c4.95,10.59 4.53,20.29 -1.25,29.14 -2.55,3.9 -5.75,7.01 -9.61,9.33 -3.89,2.3 -7.6,3.47 -11.17,3.48 -3.59,-0 -7.4,-0.85 -11.46,-2.55 -2.74,-1.15 -6.76,-3.44 -12.04,-6.88l-45.39 -29.61 7.35 -11.27 40.59 26.48c6.48,4.23 11.01,6.85 13.54,7.86 3.73,1.43 7.25,1.6 10.62,0.51 3.35,-1.07 6.13,-3.27 8.33,-6.64 2.2,-3.37 3.32,-7.14 3.33,-11.33 0.01,-4.19 -1.24,-7.99 -3.71,-11.36 -2.48,-3.35 -6.86,-7.09 -13.1,-11.16l-39.22 -25.59 7.35 -11.26 73.36 47.85 -6.6 10.11zm21.3 -25.53l-64.05 -59.74 8.23 -8.83 9.09 8.48c-3.01,-10.75 -0.75,-20.14 6.73,-28.17 3.27,-3.5 6.95,-6.05 11.06,-7.69 4.11,-1.64 7.99,-2.13 11.58,-1.49 3.6,0.64 7.23,2.11 10.85,4.41 2.35,1.53 6.04,4.62 11.06,9.3l39.33 36.68 -9.17 9.84 -38.92 -36.3c-4.42,-4.12 -8.08,-6.84 -10.97,-8.11 -2.89,-1.27 -5.91,-1.54 -9.03,-0.83 -3.1,0.73 -5.9,2.41 -8.33,5.01 -3.89,4.17 -5.78,9.13 -5.68,14.91 0.09,5.76 4.26,12.47 12.44,20.1l34.95 32.6 -9.18 9.84zm59.79 -59.91l-80.12 -90.45 10.07 -8.92 80.12 90.45 -10.07 8.92zm-39.11 -103.06l-10.59 -13.14 10.47 -8.44 10.59 13.14 -10.47 8.44zm65.25 80.93l-54.98 -68.18 10.47 -8.44 54.98 68.18 -10.47 8.44zm52.03 -76.71l12.09 -5.54c4.28,9.14 5.49,17.66 3.64,25.65 -1.85,7.99 -6.41,14.35 -13.62,19.1 -9.04,5.95 -18.47,7.48 -28.26,4.56 -9.81,-2.91 -18.71,-10.45 -26.72,-22.62 -5.2,-7.89 -8.54,-15.56 -10.07,-23.04 -1.52,-7.45 -0.85,-14.26 2.07,-20.39 2.88,-6.14 7.16,-11.08 12.86,-14.83 7.17,-4.72 14.38,-6.6 21.58,-5.58 7.22,1.01 13.91,4.78 20.05,11.32l-9.64 8.97c-4.27,-4.22 -8.53,-6.71 -12.83,-7.45 -4.26,-0.73 -8.27,0.12 -12.02,2.59 -5.66,3.72 -8.79,8.98 -9.4,15.78 -0.58,6.81 2.29,15.02 8.66,24.7 6.46,9.82 12.85,15.82 19.18,18.02 6.35,2.19 12.26,1.49 17.73,-2.11 4.42,-2.91 7.13,-6.82 8.1,-11.73 1.01,-4.91 -0.14,-10.72 -3.41,-17.42zm72.38 -36.79l13.14 -4.97c2.43,8.85 2.25,16.89 -0.53,24.06 -2.78,7.17 -8.18,12.99 -16.22,17.45 -10.11,5.6 -20.05,6.61 -29.79,3 -9.73,-3.58 -18.05,-11.61 -24.94,-24.03 -7.12,-12.84 -9.67,-24.48 -7.6,-34.89 2.05,-10.43 7.86,-18.28 17.42,-23.58 9.25,-5.12 18.72,-5.84 28.44,-2.13 9.72,3.71 18.08,11.88 25.08,24.5 0.42,0.76 1.04,1.93 1.84,3.48l-51.67 28.63c5.1,8.14 10.81,13.4 17.15,15.71 6.32,2.32 12.4,1.88 18.17,-1.32 4.3,-2.38 7.28,-5.68 8.92,-9.86 1.66,-4.2 1.84,-9.54 0.57,-16.04zm-50.03 0.53l38.63 -21.41c-4.08,-6.16 -8.25,-10.16 -12.46,-12.03 -6.49,-2.93 -12.74,-2.75 -18.68,0.55 -5.39,2.99 -8.81,7.49 -10.28,13.51 -1.45,6.01 -0.51,12.47 2.79,19.39zm91.5 10.53l-31.97 -81.54 11.24 -4.41 4.54 11.57c1.93,-11 8.02,-18.49 18.24,-22.5 4.46,-1.75 8.89,-2.46 13.3,-2.16 4.41,0.29 8.12,1.53 11.09,3.66 2.97,2.13 5.61,5.02 7.88,8.66 1.46,2.39 3.45,6.77 5.95,13.16l19.63 50.07 -12.52 4.91 -19.42 -49.54c-2.21,-5.63 -4.33,-9.66 -6.39,-12.05 -2.06,-2.39 -4.66,-3.94 -7.79,-4.65 -3.11,-0.68 -6.36,-0.38 -9.68,0.92 -5.31,2.08 -9.16,5.74 -11.56,10.99 -2.41,5.23 -1.55,13.08 2.54,23.51l17.44 44.49 -12.52 4.91zm119.42 -76.8l13.17 -1.88c1.51,9.98 0.26,18.5 -3.78,25.63 -4.04,7.13 -10.22,11.95 -18.48,14.45 -10.36,3.14 -19.83,1.93 -28.39,-3.65 -8.58,-5.57 -14.97,-15.33 -19.2,-29.27 -2.74,-9.05 -3.77,-17.34 -3.12,-24.95 0.66,-7.58 3.23,-13.91 7.77,-18.96 4.51,-5.07 10.01,-8.59 16.54,-10.57 8.21,-2.49 15.66,-2.25 22.27,0.77 6.64,3.01 11.98,8.53 16.01,16.54l-11.8 5.87c-2.9,-5.26 -6.28,-8.85 -10.19,-10.78 -3.88,-1.91 -7.97,-2.23 -12.26,-0.93 -6.48,1.97 -10.98,6.12 -13.49,12.47 -2.49,6.37 -2.06,15.05 1.3,26.14 3.41,11.25 7.83,18.82 13.27,22.72 5.47,3.9 11.34,4.91 17.6,3.01 5.07,-1.54 8.77,-4.51 11.1,-8.95 2.36,-4.42 2.92,-10.32 1.67,-17.67zm80.15 -15.15l14.03 -0.82c-0.32,9.17 -2.89,16.79 -7.68,22.81 -4.79,6.01 -11.68,9.96 -20.68,11.82 -11.32,2.33 -21.1,0.33 -29.33,-6.02 -8.22,-6.32 -13.77,-16.46 -16.64,-30.37 -2.96,-14.38 -1.93,-26.25 3.15,-35.57 5.07,-9.34 12.96,-15.11 23.66,-17.31 10.35,-2.13 19.61,0.01 27.78,6.45 8.17,6.44 13.72,16.73 16.63,30.86 0.18,0.85 0.42,2.15 0.72,3.87l-57.85 11.92c2.44,9.29 6.32,16.01 11.69,20.11 5.34,4.1 11.27,5.49 17.74,4.15 4.81,-0.99 8.64,-3.25 11.45,-6.75 2.84,-3.51 4.61,-8.56 5.33,-15.14zm-47.91 -14.42l43.26 -8.92c-2.06,-7.1 -4.84,-12.15 -8.31,-15.2 -5.32,-4.73 -11.34,-6.42 -18,-5.05 -6.04,1.24 -10.64,4.52 -13.84,9.83 -3.17,5.31 -4.21,11.75 -3.11,19.34zm134.71 29.33l-1.56 -11c-3.75,9.26 -10.45,14.58 -20.11,15.96 -6.25,0.89 -12.27,-0.19 -18.04,-3.26 -5.78,-3.04 -10.6,-7.78 -14.46,-14.16 -3.85,-6.41 -6.4,-14.03 -7.66,-22.89 -1.23,-8.63 -1.03,-16.64 0.56,-24.06 1.62,-7.39 4.77,-13.35 9.46,-17.82 4.66,-4.5 10.24,-7.2 16.68,-8.11 4.74,-0.68 9.11,-0.16 13.1,1.52 3.99,1.68 7.41,4.15 10.23,7.35l-6.12 -43.02 13.32 -1.89 17.01 119.63 -12.41 1.77zm-48.21 -37.26c1.58,11.08 4.87,19.05 9.91,23.93 5.02,4.88 10.42,6.9 16.2,6.08 5.82,-0.83 10.4,-4.15 13.73,-9.97 3.32,-5.81 4.22,-14.1 2.69,-24.84 -1.68,-11.81 -4.98,-20.2 -9.93,-25.15 -4.92,-4.95 -10.44,-6.98 -16.51,-6.12 -5.93,0.84 -10.49,4.19 -13.72,10.08 -3.2,5.88 -4,14.55 -2.38,25.99zm118.63 4.74l13.27 -2.48c0.79,5.87 2.92,10.35 6.36,13.47 3.44,3.09 8.24,4.62 14.36,4.57 6.19,-0.05 10.76,-1.47 13.74,-4.28 2.96,-2.78 4.43,-6.06 4.4,-9.8 -0.03,-3.35 -1.4,-5.98 -4.09,-7.87 -1.9,-1.31 -6.5,-2.92 -13.8,-4.91 -9.86,-2.64 -16.68,-4.94 -20.52,-6.91 -3.81,-1.99 -6.71,-4.72 -8.71,-8.25 -1.99,-3.5 -3.02,-7.4 -3.06,-11.67 -0.03,-3.91 0.75,-7.52 2.32,-10.85 1.6,-3.33 3.77,-6.11 6.52,-8.33 2.07,-1.71 4.91,-3.17 8.49,-4.38 3.6,-1.21 7.45,-1.84 11.57,-1.88 6.21,-0.05 11.68,0.88 16.38,2.84 4.73,1.93 8.22,4.6 10.49,7.95 2.25,3.39 3.84,7.9 4.73,13.57l-13.12 2.14c-0.62,-4.55 -2.39,-8.11 -5.26,-10.64 -2.88,-2.53 -6.91,-3.76 -12.13,-3.72 -6.14,0.05 -10.54,1.22 -13.14,3.49 -2.6,2.27 -3.91,4.93 -3.88,7.94 0.02,1.91 0.57,3.65 1.68,5.19 1.11,1.56 2.83,2.87 5.18,3.89 1.35,0.55 5.29,1.78 11.88,3.69 9.5,2.7 16.14,4.95 19.93,6.69 3.78,1.74 6.76,4.33 8.93,7.68 2.2,3.38 3.3,7.59 3.35,12.66 0.05,4.92 -1.21,9.57 -3.8,13.96 -2.58,4.38 -6.32,7.79 -11.22,10.22 -4.92,2.44 -10.49,3.66 -16.7,3.72 -10.29,0.09 -18.18,-2.2 -23.62,-6.85 -5.44,-4.68 -8.94,-11.62 -10.53,-20.86zm111.84 14.36l1.14 13.18c-3.81,0.67 -7.22,0.94 -10.17,0.79 -4.86,-0.26 -8.58,-1.3 -11.18,-3.16 -2.58,-1.85 -4.34,-4.17 -5.29,-7.01 -0.95,-2.84 -1.17,-8.71 -0.7,-17.61l2.66 -50.39 -9.92 -0.53 0.6 -11.46 9.92 0.53 1.14 -21.63 13.9 -8.19 -1.61 30.53 13.43 0.71 -0.61 11.46 -13.43 -0.71 -2.71 51.23c-0.22,4.24 -0.14,6.98 0.28,8.21 0.4,1.23 1.11,2.23 2.14,3.01 1.03,0.76 2.54,1.2 4.52,1.31 1.47,0.08 3.44,-0.01 5.88,-0.28zm65.21 7.61c-5.42,4.19 -10.53,7 -15.31,8.49 -4.78,1.49 -9.79,1.96 -15.06,1.45 -8.67,-0.84 -15.11,-3.81 -19.33,-8.94 -4.21,-5.1 -5.96,-11.29 -5.26,-18.54 0.41,-4.26 1.68,-8.06 3.77,-11.42 2.12,-3.35 4.7,-5.93 7.74,-7.78 3.07,-1.85 6.42,-3.16 10.1,-3.91 2.71,-0.5 6.76,-0.84 12.13,-1.05 10.94,-0.35 19.09,-1.28 24.38,-2.74 0.25,-2.01 0.4,-3.3 0.45,-3.83 0.58,-5.99 -0.28,-10.34 -2.57,-13.05 -3.1,-3.67 -8.03,-5.81 -14.78,-6.47 -6.31,-0.61 -11.1,0.17 -14.33,2.31 -3.25,2.14 -5.88,6.24 -7.93,12.31l-12.88 -3.29c1.79,-6.07 4.23,-10.89 7.34,-14.43 3.11,-3.54 7.34,-6.07 12.72,-7.64 5.35,-1.54 11.46,-1.99 18.25,-1.33 6.74,0.66 12.16,2.06 16.22,4.23 4.03,2.17 6.94,4.66 8.66,7.51 1.72,2.85 2.79,6.35 3.2,10.49 0.19,2.56 -0.03,7.12 -0.66,13.64l-1.9 19.6c-1.33,13.69 -1.89,22.37 -1.69,26.09 0.18,3.72 0.95,7.33 2.25,10.84l-13.99 -1.36c-1.04,-3.24 -1.55,-6.96 -1.53,-11.17zm2.12 -32.86c-5.08,1.71 -12.56,2.85 -22.44,3.41 -5.61,0.33 -9.61,0.93 -12,1.8 -2.39,0.87 -4.29,2.3 -5.74,4.25 -1.44,1.98 -2.31,4.24 -2.56,6.82 -0.38,3.89 0.65,7.3 3.11,10.16 2.46,2.87 6.29,4.57 11.48,5.07 5.15,0.5 9.86,-0.29 14.13,-2.38 4.24,-2.07 7.54,-5.17 9.83,-9.27 1.77,-3.19 2.95,-8.02 3.58,-14.49l0.6 -5.37zm30.01 46.69l18.61 -85.59 11.8 2.57 -2.63 12.09c3.32,-3.65 7.29,-6.33 11.88,-7.98 4.59,-1.68 9.44,-1.95 14.59,-0.83 5.72,1.25 10.14,3.59 13.23,6.99 3.09,3.44 4.88,7.65 5.34,12.71 8.34,-8.63 17.42,-11.87 27.27,-9.73 7.71,1.68 13.16,5.31 16.27,10.91 3.13,5.6 3.65,13.29 1.53,23.04l-12.76 58.68 -13.14 -2.86 11.71 -53.87c1.25,-5.77 1.71,-10.05 1.42,-12.79 -0.29,-2.74 -1.39,-5.11 -3.32,-7.17 -1.9,-2.05 -4.37,-3.4 -7.38,-4.05 -5.47,-1.19 -10.44,-0.17 -14.92,3.03 -4.48,3.23 -7.67,9.24 -9.58,18.03l-10.8 49.66 -13.14 -2.86 12.08 -55.55c1.4,-6.43 1.38,-11.5 -0.06,-15.18 -1.44,-3.68 -4.6,-6.07 -9.45,-7.12 -3.68,-0.8 -7.33,-0.47 -10.93,0.99 -3.6,1.46 -6.55,4.1 -8.87,7.94 -2.29,3.82 -4.29,9.63 -5.98,17.41l-9.65 44.36 -13.14 -2.86zm113.51 59.64l38.88 -114.76 11.58 3.92 -3.69 10.9c4.15,-3.29 8.31,-5.41 12.47,-6.35 4.14,-0.94 8.68,-0.59 13.57,1.06 6.42,2.18 11.45,5.9 15.11,11.21 3.67,5.28 5.62,11.67 5.89,19.13 0.24,7.48 -0.96,15.15 -3.64,23.06 -2.86,8.45 -6.82,15.6 -11.87,21.46 -5.04,5.84 -10.81,9.67 -17.29,11.51 -6.45,1.82 -12.59,1.76 -18.38,-0.2 -4.25,-1.44 -7.72,-3.71 -10.41,-6.82 -2.71,-3.12 -4.62,-6.53 -5.77,-10.27l-13.71 40.46 -12.74 -4.32zm36.24 -68.85c-3.6,10.63 -4.31,19.15 -2.15,25.55 2.18,6.41 6.05,10.57 11.6,12.45 5.64,1.91 11.36,0.91 17.15,-3.01 5.82,-3.91 10.58,-11.38 14.33,-22.44 3.57,-10.55 4.29,-19.09 2.14,-25.68 -2.15,-6.58 -5.95,-10.78 -11.4,-12.62 -5.4,-1.83 -11.13,-0.65 -17.16,3.51 -6.07,4.18 -10.89,11.57 -14.5,22.23zm105.11 86.8l-11.25 -5.52 53.24 -108.47 12.07 5.93 -19 38.71c8.54,-4.52 16.76,-4.84 24.67,-0.95 4.37,2.14 8.06,5.15 11.01,9.01 2.95,3.86 4.81,8.19 5.62,12.94 0.78,4.77 0.69,9.99 -0.33,15.66 -0.99,5.66 -2.9,11.33 -5.67,16.99 -6.59,13.43 -14.72,22.35 -24.33,26.72 -9.64,4.38 -18.66,4.5 -27.1,0.36 -8.39,-4.12 -13.08,-11.21 -14.08,-21.26l-4.86 9.9zm19.45 -39.96c-4.61,9.39 -6.78,16.76 -6.53,22.08 0.44,8.71 3.87,14.65 10.34,17.83 5.28,2.59 11.07,2.3 17.37,-0.88 6.32,-3.16 11.93,-9.74 16.84,-19.74 5.03,-10.25 6.91,-18.7 5.62,-25.38 -1.29,-6.68 -4.55,-11.32 -9.76,-13.88 -5.28,-2.59 -11.07,-2.3 -17.37,0.87 -6.32,3.17 -11.82,9.52 -16.52,19.09zm26.95 101.15l5.96 -12.46c2.05,2.3 3.97,4.03 5.83,5.19 2.55,1.59 4.88,2.38 6.97,2.39 2.12,0.03 4.19,-0.51 6.2,-1.57 1.5,-0.82 4.62,-3.22 9.34,-7.24 0.65,-0.56 1.61,-1.38 2.94,-2.45l20.89 -90.5 12.19 7.59 -12.68 51.68c-1.54,6.57 -3.48,13.31 -5.78,20.22 4.84,-4.84 9.88,-9.46 15.12,-13.81l41.36 -34.42 11.4 7.1 -72.55 59.79c-7.82,6.43 -13.44,10.69 -16.89,12.81 -4.61,2.86 -8.83,4.44 -12.65,4.75 -3.84,0.29 -7.57,-0.71 -11.2,-2.97 -2.21,-1.37 -4.36,-3.41 -6.44,-6.09zm155.38 72.94l8.51 -9.86c-11.15,3.49 -20.71,1.78 -28.71,-5.12 -3.53,-3.05 -6.19,-6.64 -7.97,-10.77 -1.76,-4.16 -2.42,-7.99 -1.96,-11.53 0.48,-3.56 1.83,-7.23 4.06,-11.02 1.51,-2.56 4.31,-6.24 8.42,-11.01l35.4 -41.04 10.18 8.79 -31.66 36.69c-5.05,5.86 -8.26,10 -9.6,12.37 -1.92,3.51 -2.55,6.97 -1.92,10.45 0.61,3.46 2.42,6.51 5.47,9.14 3.05,2.63 6.64,4.24 10.79,4.81 4.15,0.57 8.08,-0.16 11.75,-2.16 3.65,-2.01 7.94,-5.85 12.81,-11.49l30.59 -35.46 10.18 8.79 -57.21 66.32 -9.14 -7.89zm41 1.74l10.36 8.66c-4.03,4.34 -6.13,8.84 -6.35,13.48 -0.19,4.62 1.68,9.3 5.61,13.98 3.98,4.74 7.98,7.36 12.05,7.88 4.03,0.51 7.49,-0.44 10.36,-2.84 2.56,-2.15 3.72,-4.89 3.47,-8.16 -0.2,-2.29 -1.88,-6.87 -4.99,-13.77 -4.23,-9.28 -6.8,-16.01 -7.73,-20.22 -0.89,-4.21 -0.63,-8.18 0.82,-11.97 1.43,-3.76 3.79,-7.04 7.06,-9.79 2.99,-2.51 6.27,-4.2 9.85,-5.11 3.59,-0.89 7.11,-0.98 10.58,-0.26 2.63,0.51 5.57,1.78 8.78,3.77 3.23,2.01 6.16,4.58 8.81,7.73 3.99,4.76 6.75,9.57 8.23,14.44 1.52,4.88 1.68,9.27 0.54,13.15 -1.18,3.89 -3.65,7.99 -7.46,12.29l-10 -8.76c3.11,-3.38 4.73,-7 4.86,-10.83 0.13,-3.83 -1.49,-7.73 -4.85,-11.72 -3.95,-4.7 -7.64,-7.35 -11.05,-7.92 -3.41,-0.56 -6.29,0.12 -8.59,2.06 -1.47,1.23 -2.46,2.76 -2.94,4.6 -0.5,1.85 -0.42,4.01 0.29,6.47 0.44,1.4 1.99,5.21 4.71,11.51 3.96,9.05 6.45,15.6 7.52,19.63 1.07,4.03 0.96,7.97 -0.25,11.78 -1.21,3.85 -3.76,7.38 -7.64,10.64 -3.77,3.17 -8.16,5.16 -13.18,5.95 -5.03,0.79 -10.04,0.08 -15.03,-2.15 -5.01,-2.25 -9.5,-5.76 -13.5,-10.52 -6.62,-7.88 -9.87,-15.43 -9.74,-22.58 0.15,-7.17 3.28,-14.29 9.4,-21.39zm84.7 110.18l5.9 12.75c-8.65,3.06 -16.68,3.46 -24.03,1.2 -7.35,-2.26 -13.54,-7.22 -18.57,-14.93 -6.32,-9.68 -8.03,-19.52 -5.14,-29.49 2.87,-9.96 10.28,-18.84 22.18,-26.6 12.3,-8.02 23.73,-11.4 34.26,-10.08 10.55,1.3 18.8,6.53 24.77,15.68 5.78,8.86 7.17,18.25 4.16,28.21 -3.01,9.96 -10.55,18.89 -22.63,26.77 -0.73,0.47 -1.85,1.18 -3.34,2.08l-32.27 -49.48c-7.75,5.67 -12.59,11.74 -14.44,18.23 -1.86,6.47 -0.98,12.5 2.62,18.03 2.69,4.12 6.18,6.85 10.48,8.19 4.31,1.36 9.65,1.16 16.05,-0.58zm-4.12 -49.86l24.13 36.99c5.85,-4.52 9.54,-8.96 11.11,-13.3 2.46,-6.68 1.83,-12.9 -1.89,-18.59 -3.37,-5.16 -8.1,-8.25 -14.21,-9.28 -6.1,-1.01 -12.48,0.38 -19.14,4.18zm-5.02 92.47l80.94 -33.46 4.61 11.16 -12.4 5.12c6.92,0.47 11.81,1.54 14.63,3.21 2.85,1.66 4.86,3.95 6.05,6.84 1.73,4.19 2.04,9.05 0.94,14.58l-14.49 0.81c0.63,-3.79 0.32,-7.19 -0.93,-10.2 -1.12,-2.71 -3.03,-4.75 -5.71,-6.16 -2.68,-1.4 -5.81,-1.9 -9.38,-1.5 -5.44,0.62 -11.05,2.14 -16.84,4.54l-42.29 17.48 -5.14 -12.43z"/>
 </g>
</svg>
